{
  "accessors": [
    {
      "bufferView": 2,
      "componentType": 5126,
      "count": 168,
      "max": [
        0.19317081570625305,
        0.20000000298023224,
        0.34431761503219604
      ],
      "min": [
        -0.17500002682209015,
        -0.2000001072883606,
        -0.010000050067901611
      ],
      "type": "VEC3"
    },
    {
      "bufferView": 2,
      "byteOffset": 2016,
      "componentType": 5126,
      "count": 168,
      "max": [
        1.0,
        1.0,
        1.0
      ],
      "min": [
        -1.0,
        -1.0,
        -1.0
      ],
      "type": "VEC3"
    },
    {
      "bufferView": 3,
      "componentType": 5126,
      "count": 168,
      "max": [
        1.0,
        0.0,
        1.0,
        1.0
      ],
      "min": [
        -0.9999999403953552,
        -0.0005420556990429759,
        -1.0,
        1.0
      ],
      "type": "VEC4"
    },
    {
      "bufferView": 1,
      "componentType": 5126,
      "count": 168,
      "max": [
        0.9929714798927307,
        0.9881299138069153
      ],
      "min": [
        0.0034961700439453125,
        0.016157180070877075
      ],
      "type": "VEC2"
    },
    {
      "bufferView": 0,
      "componentType": 5125,
      "count": 252,
      "type": "SCALAR"
    },
    {
      "bufferView": 2,
      "byteOffset": 4032,
      "componentType": 5126,
      "count": 438,
      "max": [
        0.2080468088388443,
        0.20691001415252686,
        0.3452288806438446
      ],
      "min": [
        -0.20984002947807312,
        -0.20790182054042816,
        -0.5661635398864746
      ],
      "type": "VEC3"
    },
    {
      "bufferView": 2,
      "byteOffset": 9288,
      "componentType": 5126,
      "count": 438,
      "max": [
        1.0,
        1.0,
        1.0
      ],
      "min": [
        -1.0,
        -1.0,
        -1.0
      ],
      "type": "VEC3"
    },
    {
      "bufferView": 3,
      "byteOffset": 2688,
      "componentType": 5126,
      "count": 438,
      "max": [
        1.0,
        1.0,
        1.0,
        1.0
      ],
      "min": [
        -1.0,
        -1.0,
        -1.0,
        -1.0
      ],
      "type": "VEC4"
    },
    {
      "bufferView": 1,
      "byteOffset": 1344,
      "componentType": 5126,
      "count": 438,
      "max": [
        0.875,
        1.0
      ],
      "min": [
        0.125,
        0.0
      ],
      "type": "VEC2"
    },
    {
      "bufferView": 0,
      "byteOffset": 1008,
      "componentType": 5125,
      "count": 684,
      "type": "SCALAR"
    },
    {
      "bufferView": 2,
      "byteOffset": 14544,
      "componentType": 5126,
      "count": 168,
      "max": [
        0.19317176938056946,
        0.2000000923871994,
        0.34431761503219604
      ],
      "min": [
        -0.17500002682209015,
        -0.20000000298023224,
        -0.010000050067901611
      ],
      "type": "VEC3"
    },
    {
      "bufferView": 2,
      "byteOffset": 16560,
      "componentType": 5126,
      "count": 168,
      "max": [
        1.0,
        1.0,
        1.0
      ],
      "min": [
        -1.0,
        -1.0,
        -1.0
      ],
      "type": "VEC3"
    },
    {
      "bufferView": 3,
      "byteOffset": 9696,
      "componentType": 5126,
      "count": 168,
      "max": [
        1.0,
        0.0,
        1.0,
        1.0
      ],
      "min": [
        -0.9999999403953552,
        -0.0005420556990429759,
        -1.0,
        1.0
      ],
      "type": "VEC4"
    },
    {
      "bufferView": 1,
      "byteOffset": 4848,
      "componentType": 5126,
      "count": 168,
      "max": [
        0.9929714798927307,
        0.9881299138069153
      ],
      "min": [
        0.0034961700439453125,
        0.016157180070877075
      ],
      "type": "VEC2"
    },
    {
      "bufferView": 0,
      "byteOffset": 3744,
      "componentType": 5125,
      "count": 252,
      "type": "SCALAR"
    },
    {
      "bufferView": 2,
      "byteOffset": 18576,
      "componentType": 5126,
      "count": 436,
      "max": [
        0.20804744958877563,
        0.20691022276878357,
        0.3452288806438446
      ],
      "min": [
        -0.20983907580375671,
        -0.20790158212184906,
        -0.5661635398864746
      ],
      "type": "VEC3"
    },
    {
      "bufferView": 2,
      "byteOffset": 23808,
      "componentType": 5126,
      "count": 436,
      "max": [
        1.0,
        1.0,
        1.0
      ],
      "min": [
        -1.0,
        -1.0,
        -1.0
      ],
      "type": "VEC3"
    },
    {
      "bufferView": 3,
      "byteOffset": 12384,
      "componentType": 5126,
      "count": 436,
      "max": [
        1.0,
        1.0,
        1.0,
        1.0
      ],
      "min": [
        -1.0,
        -1.0,
        -1.0,
        -1.0
      ],
      "type": "VEC4"
    },
    {
      "bufferView": 1,
      "byteOffset": 6192,
      "componentType": 5126,
      "count": 436,
      "max": [
        0.875,
        1.0
      ],
      "min": [
        0.125,
        0.0
      ],
      "type": "VEC2"
    },
    {
      "bufferView": 0,
      "byteOffset": 4752,
      "componentType": 5125,
      "count": 684,
      "type": "SCALAR"
    },
    {
      "bufferView": 2,
      "byteOffset": 29040,
      "componentType": 5126,
      "count": 168,
      "max": [
        0.19317129254341125,
        0.20000022649765015,
        0.34431761503219604
      ],
      "min": [
        -0.17500002682209015,
        -0.20000000298023224,
        -0.010000050067901611
      ],
      "type": "VEC3"
    },
    {
      "bufferView": 2,
      "byteOffset": 31056,
      "componentType": 5126,
      "count": 168,
      "max": [
        1.0,
        1.0,
        1.0
      ],
      "min": [
        -1.0,
        -1.0,
        -1.0
      ],
      "type": "VEC3"
    },
    {
      "bufferView": 3,
      "byteOffset": 19360,
      "componentType": 5126,
      "count": 168,
      "max": [
        1.0,
        0.0,
        1.0,
        1.0
      ],
      "min": [
        -0.9999999403953552,
        -0.0005420556990429759,
        -1.0,
        1.0
      ],
      "type": "VEC4"
    },
    {
      "bufferView": 1,
      "byteOffset": 9680,
      "componentType": 5126,
      "count": 168,
      "max": [
        0.9929714798927307,
        0.9881299138069153
      ],
      "min": [
        0.0034961700439453125,
        0.016157180070877075
      ],
      "type": "VEC2"
    },
    {
      "bufferView": 0,
      "byteOffset": 7488,
      "componentType": 5125,
      "count": 252,
      "type": "SCALAR"
    },
    {
      "bufferView": 2,
      "byteOffset": 33072,
      "componentType": 5126,
      "count": 438,
      "max": [
        0.20804744958877563,
        0.2069101333618164,
        0.3452288806438446
      ],
      "min": [
        -0.20983907580375671,
        -0.2079017013311386,
        -0.5661635398864746
      ],
      "type": "VEC3"
    },
    {
      "bufferView": 2,
      "byteOffset": 38328,
      "componentType": 5126,
      "count": 438,
      "max": [
        1.0,
        1.0,
        1.0
      ],
      "min": [
        -1.0,
        -1.0,
        -1.0
      ],
      "type": "VEC3"
    },
    {
      "bufferView": 3,
      "byteOffset": 22048,
      "componentType": 5126,
      "count": 438,
      "max": [
        1.0,
        1.0,
        1.0,
        1.0
      ],
      "min": [
        -1.0,
        -1.0,
        -1.0,
        -1.0
      ],
      "type": "VEC4"
    },
    {
      "bufferView": 1,
      "byteOffset": 11024,
      "componentType": 5126,
      "count": 438,
      "max": [
        0.875,
        1.0
      ],
      "min": [
        0.125,
        0.0
      ],
      "type": "VEC2"
    },
    {
      "bufferView": 0,
      "byteOffset": 8496,
      "componentType": 5125,
      "count": 684,
      "type": "SCALAR"
    },
    {
      "bufferView": 2,
      "byteOffset": 43584,
      "componentType": 5126,
      "count": 168,
      "max": [
        0.19317033886909485,
        0.20000000298023224,
        0.34431761503219604
      ],
      "min": [
        -0.17500002682209015,
        -0.20000047981739044,
        -0.010000050067901611
      ],
      "type": "VEC3"
    },
    {
      "bufferView": 2,
      "byteOffset": 45600,
      "componentType": 5126,
      "count": 168,
      "max": [
        1.0,
        1.0,
        1.0
      ],
      "min": [
        -1.0,
        -1.0,
        -1.0
      ],
      "type": "VEC3"
    },
    {
      "bufferView": 3,
      "byteOffset": 29056,
      "componentType": 5126,
      "count": 168,
      "max": [
        1.0,
        0.0,
        1.0,
        1.0
      ],
      "min": [
        -0.9999999403953552,
        -0.0005420556990429759,
        -1.0,
        1.0
      ],
      "type": "VEC4"
    },
    {
      "bufferView": 1,
      "byteOffset": 14528,
      "componentType": 5126,
      "count": 168,
      "max": [
        0.9929714798927307,
        0.9881299138069153
      ],
      "min": [
        0.0034961700439453125,
        0.016157180070877075
      ],
      "type": "VEC2"
    },
    {
      "bufferView": 0,
      "byteOffset": 11232,
      "componentType": 5125,
      "count": 252,
      "type": "SCALAR"
    },
    {
      "bufferView": 2,
      "byteOffset": 47616,
      "componentType": 5126,
      "count": 440,
      "max": [
        0.20804674923419952,
        0.20690980553627014,
        0.3452288806438446
      ],
      "min": [
        -0.2098398208618164,
        -0.20790205895900726,
        -0.5661635398864746
      ],
      "type": "VEC3"
    },
    {
      "bufferView": 2,
      "byteOffset": 52896,
      "componentType": 5126,
      "count": 440,
      "max": [
        1.0,
        1.0,
        1.0
      ],
      "min": [
        -1.0,
        -1.0,
        -1.0
      ],
      "type": "VEC3"
    },
    {
      "bufferView": 3,
      "byteOffset": 31744,
      "componentType": 5126,
      "count": 440,
      "max": [
        1.0,
        1.0,
        1.0,
        1.0
      ],
      "min": [
        -1.0,
        -1.0,
        -1.0,
        -1.0
      ],
      "type": "VEC4"
    },
    {
      "bufferView": 1,
      "byteOffset": 15872,
      "componentType": 5126,
      "count": 440,
      "max": [
        0.875,
        1.0
      ],
      "min": [
        0.125,
        0.0
      ],
      "type": "VEC2"
    },
    {
      "bufferView": 0,
      "byteOffset": 12240,
      "componentType": 5125,
      "count": 684,
      "type": "SCALAR"
    },
    {
      "bufferView": 2,
      "byteOffset": 58176,
      "componentType": 5126,
      "count": 192,
      "max": [
        0.6408182978630066,
        0.9235802292823792,
        0.009999990463256836
      ],
      "min": [
        -0.03717046603560448,
        -0.252346396446228,
        -0.009999990463256836
      ],
      "type": "VEC3"
    },
    {
      "bufferView": 2,
      "byteOffset": 60480,
      "componentType": 5126,
      "count": 192,
      "max": [
        1.0,
        1.0,
        1.0
      ],
      "min": [
        -1.0,
        -1.0,
        -1.0
      ],
      "type": "VEC3"
    },
    {
      "bufferView": 3,
      "byteOffset": 38784,
      "componentType": 5126,
      "count": 192,
      "max": [
        1.0,
        0.0,
        0.9999992847442627,
        1.0
      ],
      "min": [
        -1.0,
        -0.0015940810553729534,
        -0.9999990463256836,
        1.0
      ],
      "type": "VEC4"
    },
    {
      "bufferView": 1,
      "byteOffset": 19392,
      "componentType": 5126,
      "count": 192,
      "max": [
        0.3125649392604828,
        0.9881299138069153
      ],
      "min": [
        0.0034961700439453125,
        0.017387570813298225
      ],
      "type": "VEC2"
    },
    {
      "bufferView": 0,
      "byteOffset": 14976,
      "componentType": 5125,
      "count": 288,
      "type": "SCALAR"
    },
    {
      "bufferView": 2,
      "byteOffset": 62784,
      "componentType": 5126,
      "count": 256,
      "max": [
        0.7006798982620239,
        0.9670902490615845,
        -0.008163362741470337
      ],
      "min": [
        -0.09238722920417786,
        -0.29603540897369385,
        -0.8705693483352661
      ],
      "type": "VEC3"
    },
    {
      "bufferView": 2,
      "byteOffset": 65856,
      "componentType": 5126,
      "count": 256,
      "max": [
        1.0,
        1.0,
        1.0
      ],
      "min": [
        -1.0,
        -1.0,
        -1.0
      ],
      "type": "VEC3"
    },
    {
      "bufferView": 3,
      "byteOffset": 41856,
      "componentType": 5126,
      "count": 256,
      "max": [
        1.0,
        1.0,
        0.971952497959137,
        1.0
      ],
      "min": [
        -1.0,
        -1.0,
        -1.0,
        -1.0
      ],
      "type": "VEC4"
    },
    {
      "bufferView": 1,
      "byteOffset": 20928,
      "componentType": 5126,
      "count": 256,
      "max": [
        0.875,
        1.0
      ],
      "min": [
        0.125,
        0.0
      ],
      "type": "VEC2"
    },
    {
      "bufferView": 0,
      "byteOffset": 16128,
      "componentType": 5125,
      "count": 384,
      "type": "SCALAR"
    }
  ],
  "asset": {
    "extras": {
      "author": "OfekDavid (https://sketchfab.com/OfekDavid)",
      "license": "CC-BY-4.0 (http://creativecommons.org/licenses/by/4.0/)",
      "source": "https://sketchfab.com/3d-models/tables-and-chairs-7193b868ef684578afd230a59ef9be8f",
      "title": "Tables And Chairs"
    },
    "generator": "Sketchfab-12.67.0",
    "version": "2.0"
  },
  "bufferViews": [
    {
      "buffer": 0,
      "byteLength": 17664,
      "name": "floatBufferViews",
      "target": 34963
    },
    {
      "buffer": 0,
      "byteLength": 22976,
      "byteOffset": 17664,
      "byteStride": 8,
      "name": "floatBufferViews",
      "target": 34962
    },
    {
      "buffer": 0,
      "byteLength": 68928,
      "byteOffset": 40640,
      "byteStride": 12,
      "name": "floatBufferViews",
      "target": 34962
    },
    {
      "buffer": 0,
      "byteLength": 45952,
      "byteOffset": 109568,
      "byteStride": 16,
      "name": "floatBufferViews",
      "target": 34962
    }
  ],
  "buffers": [
    {
      "byteLength": 155520,
      "uri": "scene.bin"
    }
  ],
  "images": [
    {
      "uri": "textures/Wood049_2K_baseColor.png"
    },
    {
      "uri": "textures/Wood049_2K_metallicRoughness.png"
    },
    {
      "uri": "textures/Wood049_2K_normal.png"
    },
    {
      "uri": "textures/Metal028_2K_baseColor.png"
    },
    {
      "uri": "textures/Metal028_2K_metallicRoughness.png"
    },
    {
      "uri": "textures/Metal028_2K_normal.png"
    }
  ],
  "materials": [
    {
      "doubleSided": true,
      "name": "Wood049_2K",
      "normalTexture": {
        "index": 2
      },
      "pbrMetallicRoughness": {
        "baseColorTexture": {
          "index": 0
        },
        "metallicFactor": 0.0,
        "metallicRoughnessTexture": {
          "index": 1
        }
      }
    },
    {
      "doubleSided": true,
      "name": "Metal028_2K",
      "normalTexture": {
        "index": 5
      },
      "pbrMetallicRoughness": {
        "baseColorTexture": {
          "index": 3
        },
        "metallicRoughnessTexture": {
          "index": 4
        }
      }
    }
  ],
  "meshes": [
    {
      "name": "Chair1_Wood049_2K_0",
      "primitives": [
        {
          "attributes": {
            "NORMAL": 1,
            "POSITION": 0,
            "TANGENT": 2,
            "TEXCOORD_0": 3
          },
          "indices": 4,
          "material": 0,
          "mode": 4
        }
      ]
    },
    {
      "name": "Chair1_Metal028_2K_0",
      "primitives": [
        {
          "attributes": {
            "NORMAL": 6,
            "POSITION": 5,
            "TANGENT": 7,
            "TEXCOORD_0": 8
          },
          "indices": 9,
          "material": 1,
          "mode": 4
        }
      ]
    },
    {
      "name": "Chair2_Wood049_2K_0",
      "primitives": [
        {
          "attributes": {
            "NORMAL": 11,
            "POSITION": 10,
            "TANGENT": 12,
            "TEXCOORD_0": 13
          },
          "indices": 14,
          "material": 0,
          "mode": 4
        }
      ]
    },
    {
      "name": "Chair2_Metal028_2K_0",
      "primitives": [
        {
          "attributes": {
            "NORMAL": 16,
            "POSITION": 15,
            "TANGENT": 17,
            "TEXCOORD_0": 18
          },
          "indices": 19,
          "material": 1,
          "mode": 4
        }
      ]
    },
    {
      "name": "Chair3_Wood049_2K_0",
      "primitives": [
        {
          "attributes": {
            "NORMAL": 21,
            "POSITION": 20,
            "TANGENT": 22,
            "TEXCOORD_0": 23
          },
          "indices": 24,
          "material": 0,
          "mode": 4
        }
      ]
    },
    {
      "name": "Chair3_Metal028_2K_0",
      "primitives": [
        {
          "attributes": {
            "NORMAL": 26,
            "POSITION": 25,
            "TANGENT": 27,
            "TEXCOORD_0": 28
          },
          "indices": 29,
          "material": 1,
          "mode": 4
        }
      ]
    },
    {
      "name": "Chair4_Wood049_2K_0",
      "primitives": [
        {
          "attributes": {
            "NORMAL": 31,
            "POSITION": 30,
            "TANGENT": 32,
            "TEXCOORD_0": 33
          },
          "indices": 34,
          "material": 0,
          "mode": 4
        }
      ]
    },
    {
      "name": "Chair4_Metal028_2K_0",
      "primitives": [
        {
          "attributes": {
            "NORMAL": 36,
            "POSITION": 35,
            "TANGENT": 37,
            "TEXCOORD_0": 38
          },
          "indices": 39,
          "material": 1,
          "mode": 4
        }
      ]
    },
    {
      "name": "Table_Wood049_2K_0",
      "primitives": [
        {
          "attributes": {
            "NORMAL": 41,
            "POSITION": 40,
            "TANGENT": 42,
            "TEXCOORD_0": 43
          },
          "indices": 44,
          "material": 0,
          "mode": 4
        }
      ]
    },
    {
      "name": "Table_Metal028_2K_0",
      "primitives": [
        {
          "attributes": {
            "NORMAL": 46,
            "POSITION": 45,
            "TANGENT": 47,
            "TEXCOORD_0": 48
          },
          "indices": 49,
          "material": 1,
          "mode": 4
        }
      ]
    }
  ],
  "nodes": [
    {
      "children": [
        1
      ],
      "matrix": [
        1.0,
        0.0,
        0.0,
        0.0,
        0.0,
        2.220446049250313e-16,
        -1.0,
        0.0,
        0.0,
        1.0,
        2.220446049250313e-16,
        0.0,
        0.0,
        0.0,
        0.0,
        1.0
      ],
      "name": "Sketchfab_model"
    },
    {
      "children": [
        2
      ],
      "matrix": [
        0.009999999776482582,
        0.0,
        0.0,
        0.0,
        0.0,
        0.0,
        0.009999999776482582,
        0.0,
        0.0,
        -0.009999999776482582,
        0.0,
        0.0,
        0.0,
        0.0,
        0.0,
        1.0
      ],
      "name": "d42622b1b79f4125a2f8d32e86ccc560.fbx"
    },
    {
      "children": [
        3,
        6,
        9,
        12,
        15
      ],
      "name": "RootNode"
    },
    {
      "children": [
        4,
        5
      ],
      "matrix": [
        120.00000762939453,
        0.0,
        0.0,
        0.0,
        0.0,
        -1.955048277000591e-05,
        -120.00000762939294,
        0.0,
        0.0,
        120.00000762939294,
        -1.955048277000591e-05,
        0.0,
        717.132080078125,
        167.0771026611328,
        -232.9507598876953,
        1.0
      ],
      "name": "Chair1"
    },
    {
      "mesh": 0,
      "name": "Chair1_Wood049_2K_0"
    },
    {
      "mesh": 1,
      "name": "Chair1_Metal028_2K_0"
    },
    {
      "children": [
        7,
        8
      ],
      "matrix": [
        -119.05163353687205,
        -1.3322676295501878e-14,
        15.05684403194519,
        0.0,
        15.056844031945172,
        -5.245366807571372e-06,
        119.05163353687195,
        0.0,
        6.581556102226311e-07,
        120.00000762939442,
        5.20391272519177e-06,
        0.0,
        598.7346801757813,
        167.0771026611328,
        -232.9507598876953,
        1.0
      ],
      "name": "Chair2"
    },
    {
      "mesh": 2,
      "name": "Chair2_Wood049_2K_0"
    },
    {
      "mesh": 3,
      "name": "Chair2_Metal028_2K_0"
    },
    {
      "children": [
        10,
        11
      ],
      "matrix": [
        116.62411369557019,
        -1.1996778304101952e-06,
        -28.263334989394277,
        0.0,
        -28.263334989394107,
        -1.9259744918898036e-05,
        -116.62411369556862,
        0.0,
        -3.370277374962282e-06,
        120.00000762939297,
        -1.9000481037518677e-05,
        0.0,
        717.132080078125,
        167.0771026611328,
        -303.102294921875,
        1.0
      ],
      "name": "Chair3"
    },
    {
      "mesh": 4,
      "name": "Chair3_Wood049_2K_0"
    },
    {
      "mesh": 5,
      "name": "Chair3_Metal028_2K_0"
    },
    {
      "children": [
        13,
        14
      ],
      "matrix": [
        -110.33506965557163,
        -1.998401571380224e-14,
        -47.18235088626785,
        0.0,
        -47.182350886267805,
        -5.245367114417458e-06,
        110.33506965557153,
        0.0,
        -2.0624061537535473e-06,
        120.00000762939442,
        4.822899240185799e-06,
        0.0,
        598.7346801757813,
        167.0771026611328,
        -313.2514343261719,
        1.0
      ],
      "name": "Chair4"
    },
    {
      "mesh": 6,
      "name": "Chair4_Wood049_2K_0"
    },
    {
      "mesh": 7,
      "name": "Chair4_Metal028_2K_0"
    },
    {
      "children": [
        16,
        17
      ],
      "matrix": [
        120.00000762939453,
        -1.0658142984577362e-13,
        0.0,
        0.0,
        -1.73643189736313e-20,
        -1.955048277000591e-05,
        -120.00000762939294,
        0.0,
        1.065814298457722e-13,
        120.00000762939294,
        -1.955048277000591e-05,
        0.0,
        627.1476440429688,
        203.3769073486328,
        -224.78836059570313,
        1.0
      ],
      "name": "Table"
    },
    {
      "mesh": 8,
      "name": "Table_Wood049_2K_0"
    },
    {
      "mesh": 9,
      "name": "Table_Metal028_2K_0"
    }
  ],
  "samplers": [
    {
      "magFilter": 9729,
      "minFilter": 9987,
      "wrapS": 10497,
      "wrapT": 10497
    }
  ],
  "scene": 0,
  "scenes": [
    {
      "name": "Sketchfab_Scene",
      "nodes": [
        0
      ]
    }
  ],
  "textures": [
    {
      "sampler": 0,
      "source": 0
    },
    {
      "sampler": 0,
      "source": 1
    },
    {
      "sampler": 0,
      "source": 2
    },
    {
      "sampler": 0,
      "source": 3
    },
    {
      "sampler": 0,
      "source": 4
    },
    {
      "sampler": 0,
      "source": 5
    }
  ]
}
